{
	"patcher" : 	{
		"fileversion" : 1,
		"appversion" : 		{
			"major" : 7,
			"minor" : 3,
			"revision" : 5,
			"architecture" : "x64",
			"modernui" : 1
		}
,
		"rect" : [ 26.0, 85.0, 1852.0, 969.0 ],
		"bglocked" : 0,
		"openinpresentation" : 0,
		"default_fontsize" : 12.0,
		"default_fontface" : 0,
		"default_fontname" : "Arial",
		"gridonopen" : 1,
		"gridsize" : [ 15.0, 15.0 ],
		"gridsnaponopen" : 1,
		"objectsnaponopen" : 1,
		"statusbarvisible" : 2,
		"toolbarvisible" : 1,
		"lefttoolbarpinned" : 0,
		"toptoolbarpinned" : 0,
		"righttoolbarpinned" : 0,
		"bottomtoolbarpinned" : 0,
		"toolbars_unpinned_last_save" : 0,
		"tallnewobj" : 0,
		"boxanimatetime" : 200,
		"enablehscroll" : 1,
		"enablevscroll" : 1,
		"devicewidth" : 0.0,
		"description" : "",
		"digest" : "",
		"tags" : "",
		"style" : "",
		"subpatcher_template" : "",
		"boxes" : [ 			{
				"box" : 				{
					"id" : "obj-16",
					"maxclass" : "newobj",
					"numinlets" : 1,
					"numoutlets" : 2,
					"outlettype" : [ "", "FullPacket" ],
					"patching_rect" : [ 192.0, 572.0, 292.0, 22.0 ],
					"style" : "",
					"text" : "o.gather.select /pad/*/pitch /pad/*/speed /amp /pad/id"
				}

			}
, 			{
				"box" : 				{
					"comment" : "",
					"id" : "obj-7",
					"index" : 0,
					"maxclass" : "inlet",
					"numinlets" : 0,
					"numoutlets" : 1,
					"outlettype" : [ "" ],
					"patching_rect" : [ 192.0, 64.0, 30.0, 30.0 ],
					"style" : ""
				}

			}
, 			{
				"box" : 				{
					"id" : "obj-6",
					"maxclass" : "newobj",
					"numinlets" : 2,
					"numoutlets" : 1,
					"outlettype" : [ "FullPacket" ],
					"patching_rect" : [ 192.0, 127.0, 67.0, 22.0 ],
					"style" : "",
					"text" : "o.union"
				}

			}
, 			{
				"box" : 				{
					"id" : "obj-5",
					"maxclass" : "newobj",
					"numinlets" : 1,
					"numoutlets" : 1,
					"outlettype" : [ "" ],
					"patching_rect" : [ 240.0, 64.0, 79.0, 22.0 ],
					"style" : "",
					"text" : "loadmess #1"
				}

			}
, 			{
				"box" : 				{
					"comment" : "",
					"id" : "obj-2",
					"index" : 0,
					"maxclass" : "outlet",
					"numinlets" : 1,
					"numoutlets" : 0,
					"patching_rect" : [ 192.0, 605.0, 30.0, 30.0 ],
					"style" : ""
				}

			}
, 			{
				"box" : 				{
					"id" : "obj-1",
					"maxclass" : "newobj",
					"numinlets" : 1,
					"numoutlets" : 1,
					"outlettype" : [ "FullPacket" ],
					"patching_rect" : [ 240.0, 95.0, 85.0, 22.0 ],
					"style" : "",
					"text" : "o.pack /pad/id"
				}

			}
, 			{
				"box" : 				{
					"fontface" : 0,
					"fontsize" : 12.0,
					"id" : "obj-109",
					"linecount" : 28,
					"maxclass" : "o.expr.codebox",
					"numinlets" : 1,
					"numoutlets" : 2,
					"outlettype" : [ "FullPacket", "FullPacket" ],
					"patching_rect" : [ 192.0, 162.0, 398.0, 399.0 ],
					"text" : "/pad/id ??= 0,\nif (!bound(\"/pad/\" + /pad/id + \"/x\"),\n    assign(\"/pad/\" + /pad/id + \"/x\", 0)\n),\nif (!bound(\"/pad/\" + /pad/id + \"/y\"),\n    assign(\"/pad/\" + /pad/id + \"/y\", 0)\n),\nif (!bound(\"/pad/\" + /pad/id + \"/z\"),\n    assign(\"/pad/\" + /pad/id + \"/z\", 0)\n),\n\n/x = value(\"/pad/\" + /pad/id + \"/x\"),\n/y = value(\"/pad/\" + /pad/id + \"/y\"),\n/z = value(\"/pad/\" + /pad/id + \"/z\"),\n\n/pitch = scale(/y, 0, 127, -10, 10.),\n/speed = scale(/x, 0, 127, -2., 2.),\n/amp = scale(/z, 0, 127, 0., 1.),\n\nif (/x == 63 && /y == 63,\n    progn(\n        /speed = 0,\n        /pitch = 0\n    )\n),\n\nassign(\"/pad/\" + /pad/id + \"/pitch\", /pitch),\nassign(\"/pad/\" + /pad/id + \"/speed\", /speed)"
				}

			}
 ],
		"lines" : [ 			{
				"patchline" : 				{
					"destination" : [ "obj-6", 1 ],
					"source" : [ "obj-1", 0 ]
				}

			}
, 			{
				"patchline" : 				{
					"destination" : [ "obj-16", 0 ],
					"source" : [ "obj-109", 0 ]
				}

			}
, 			{
				"patchline" : 				{
					"destination" : [ "obj-2", 0 ],
					"source" : [ "obj-16", 0 ]
				}

			}
, 			{
				"patchline" : 				{
					"destination" : [ "obj-1", 0 ],
					"source" : [ "obj-5", 0 ]
				}

			}
, 			{
				"patchline" : 				{
					"destination" : [ "obj-109", 0 ],
					"source" : [ "obj-6", 0 ]
				}

			}
, 			{
				"patchline" : 				{
					"destination" : [ "obj-6", 0 ],
					"source" : [ "obj-7", 0 ]
				}

			}
 ],
		"dependency_cache" : [ 			{
				"name" : "o.gather.select.maxpat",
				"bootpath" : "D:/Users/gloliva/Documents/Max 7/Packages/Music-and-Computing/patchers/gatherers",
				"patcherrelativepath" : "../../../Max 7/Packages/Music-and-Computing/patchers/gatherers",
				"type" : "JSON",
				"implicit" : 1
			}
, 			{
				"name" : "cnmat.loadbang.maxpat",
				"bootpath" : "D:/Users/gloliva/Documents/Max 7/Packages/Music-and-Computing/patchers/internal",
				"patcherrelativepath" : "../../../Max 7/Packages/Music-and-Computing/patchers/internal",
				"type" : "JSON",
				"implicit" : 1
			}
, 			{
				"name" : "o.expr.codebox.mxe64",
				"type" : "mx64"
			}
, 			{
				"name" : "o.pack.mxe64",
				"type" : "mx64"
			}
, 			{
				"name" : "o.union.mxe64",
				"type" : "mx64"
			}
, 			{
				"name" : "o.select.mxe64",
				"type" : "mx64"
			}
, 			{
				"name" : "o.collect.mxe64",
				"type" : "mx64"
			}
, 			{
				"name" : "o.if.mxe64",
				"type" : "mx64"
			}
 ],
		"autosave" : 0
	}

}
